<svg width="37" height="31" viewBox="0 0 37 31" fill="none" xmlns="http://www.w3.org/2000/svg">
<path fill-rule="evenodd" clip-rule="evenodd" d="M0.470703 2C0.470703 0.89543 1.36613 0 2.4707 0H34.4707C35.5753 0 36.4707 0.89543 36.4707 2V29C36.4707 30.1046 35.5753 31 34.4707 31H2.4707C1.36613 31 0.470703 30.1046 0.470703 29V2ZM2.4707 8C2.4707 7.44772 2.91842 7 3.4707 7H33.4707C34.023 7 34.4707 7.44772 34.4707 8V28C34.4707 28.5523 34.023 29 33.4707 29H3.4707C2.91842 29 2.4707 28.5523 2.4707 28V8ZM3.4707 3C2.91842 3 2.4707 3.44772 2.4707 4C2.4707 4.55228 2.91842 5 3.4707 5H4.4707C5.02299 5 5.4707 4.55228 5.4707 4C5.4707 3.44772 5.02299 3 4.4707 3H3.4707ZM7.4707 4C7.4707 3.44772 7.91842 3 8.4707 3H9.4707C10.023 3 10.4707 3.44772 10.4707 4C10.4707 4.55228 10.023 5 9.4707 5H8.4707C7.91842 5 7.4707 4.55228 7.4707 4ZM28.4707 3C27.9184 3 27.4707 3.44772 27.4707 4C27.4707 4.55228 27.9184 5 28.4707 5H33.4707C34.023 5 34.4707 4.55228 34.4707 4C34.4707 3.44772 34.023 3 33.4707 3H28.4707Z" fill="#393939"/>
<path fill-rule="evenodd" clip-rule="evenodd" d="M5 8C4.44772 8 4 8.44772 4 9V27C4 27.5523 4.44772 28 5 28H12V8H5ZM32 8C32.5523 8 33 8.44772 33 9V27C33 27.5523 32.5523 28 32 28H13V8H32Z" fill="url(#paint0_linear_0_156)"/>
<defs>
<linearGradient id="paint0_linear_0_156" x1="4" y1="28" x2="33" y2="28" gradientUnits="userSpaceOnUse">
<stop stop-color="#FF3300"/>
<stop offset="1" stop-color="#FF9A81"/>
</linearGradient>
</defs>
</svg>
