<svg width="36" height="31" viewBox="0 0 36 31" fill="none" xmlns="http://www.w3.org/2000/svg">
<path fill-rule="evenodd" clip-rule="evenodd" d="M0 2C0 0.89543 0.895431 0 2 0H34C35.1046 0 36 0.89543 36 2V29C36 30.1046 35.1046 31 34 31H2C0.895431 31 0 30.1046 0 29V2ZM2 8C2 7.44772 2.44772 7 3 7H33C33.5523 7 34 7.44772 34 8V28C34 28.5523 33.5523 29 33 29H3C2.44772 29 2 28.5523 2 28V8ZM3 3C2.44772 3 2 3.44772 2 4C2 4.55228 2.44772 5 3 5H4C4.55228 5 5 4.55228 5 4C5 3.44772 4.55228 3 4 3H3ZM7 4C7 3.44772 7.44772 3 8 3H9C9.55229 3 10 3.44772 10 4C10 4.55228 9.55228 5 9 5H8C7.44772 5 7 4.55228 7 4ZM28 3C27.4477 3 27 3.44772 27 4C27 4.55228 27.4477 5 28 5H33C33.5523 5 34 4.55228 34 4C34 3.44772 33.5523 3 33 3H28Z" fill="#393939"/>
<path fill-rule="evenodd" clip-rule="evenodd" d="M4 8C3.44772 8 3 8.44772 3 9V27C3 27.5523 3.44772 28 4 28H32C32.5523 28 33 27.5523 33 27V9C33 8.44772 32.5523 8 32 8H4ZM20.5404 12C19.6191 12 19.0253 12.1028 18.3445 12.415C18.0925 12.5306 17.8561 12.6698 17.6365 12.8322C17.4253 12.6789 17.1983 12.5461 16.9567 12.4341C16.2628 12.1126 15.6385 12 14.7503 12C12.3715 12 10.6429 13.8467 10.6429 16.2452C10.6429 18.0565 11.7207 19.8061 13.7285 21.498C14.7823 22.3861 16.1279 23.265 17.0915 23.7325L17.6429 24L18.1942 23.7325C19.1578 23.265 20.5034 22.3861 21.5572 21.498C23.565 19.8061 24.6429 18.0565 24.6429 16.2452C24.6429 13.8721 22.8979 12.0092 20.5404 12Z" fill="url(#paint0_linear_0_146)"/>
<defs>
<linearGradient id="paint0_linear_0_146" x1="3" y1="28" x2="33" y2="28" gradientUnits="userSpaceOnUse">
<stop stop-color="#FF3300"/>
<stop offset="1" stop-color="#FF9A81"/>
</linearGradient>
</defs>
</svg>
