<svg width="24" height="25" viewBox="0 0 24 25" fill="none" xmlns="http://www.w3.org/2000/svg">
<path fill-rule="evenodd" clip-rule="evenodd" d="M12 24.3198C18.1176 24.3198 23.0769 19.0995 23.0769 12.6599C23.0769 6.22032 18.1176 1 12 1C5.8824 1 0.923096 6.22032 0.923096 12.6599C0.923096 19.0995 5.8824 24.3198 12 24.3198Z" fill="#393939" stroke="white"/>
<path d="M1.20007 13H23.3539" stroke="white"/>
<path d="M2.40002 18.0527H21.6176" stroke="white"/>
<path d="M1.80002 7.94725H22.2" stroke="white"/>
<path fill-rule="evenodd" clip-rule="evenodd" d="M12 24.3198C14.0393 24.3198 15.6924 19.0995 15.6924 12.6599C15.6924 6.22032 14.0393 1 12 1C9.96084 1 8.30774 6.22032 8.30774 12.6599C8.30774 19.0995 9.96084 24.3198 12 24.3198Z" stroke="white"/>
</svg>
