<svg width="16" height="18" viewBox="0 0 16 18" fill="none" xmlns="http://www.w3.org/2000/svg">
<path fill-rule="evenodd" clip-rule="evenodd" d="M7.99997 16.5466C12.0784 16.5466 15.3846 13.0663 15.3846 8.77328C15.3846 4.48022 12.0784 1 7.99997 1C3.92156 1 0.615356 4.48022 0.615356 8.77328C0.615356 13.0663 3.92156 16.5466 7.99997 16.5466Z" stroke="#393939"/>
<path d="M0.799988 9.00003H15.5692" stroke="#393939"/>
<path d="M1.59998 12.3684H14.4117" stroke="#393939"/>
<path d="M1.19997 5.63162H14.8" stroke="#393939"/>
<path fill-rule="evenodd" clip-rule="evenodd" d="M7.99999 16.5466C9.35946 16.5466 10.4615 13.0663 10.4615 8.77328C10.4615 4.48022 9.35946 1 7.99999 1C6.64052 1 5.53845 4.48022 5.53845 8.77328C5.53845 13.0663 6.64052 16.5466 7.99999 16.5466Z" stroke="#393939"/>
</svg>
