<svg width="20" height="20" viewBox="0 0 20 20" fill="none" xmlns="http://www.w3.org/2000/svg">
<path d="M11.3432 4.54368L12.7682 5.94702L6.44998 12.3628C6.13295 12.6863 6.13295 13.2071 6.44998 13.5307C6.75083 13.8378 7.2534 13.8364 7.55103 13.529L14.5024 6.46741C15.5172 5.43179 15.5172 3.76857 14.5024 2.73294C13.5342 1.74484 11.821 1.76682 10.8721 2.73482L3.28478 10.437C1.57178 12.1844 1.57178 14.9904 3.28478 16.7378C4.94819 18.4346 7.80568 18.407 9.44311 16.7362L18.2921 7.74899L19.7172 9.1522L10.8699 18.1378C8.45596 20.6008 4.31032 20.6409 1.85657 18.1379C-0.618817 15.6127 -0.618817 11.562 1.85828 9.03517L9.44557 1.33301C11.169 -0.425057 14.1703 -0.463563 15.9309 1.33316C17.7077 3.14642 17.7077 6.05393 15.9293 7.86883L8.9821 14.9262C7.90743 16.0361 6.10958 16.0411 5.02138 14.9304C3.94248 13.8292 3.94248 12.0643 5.02318 10.9612L11.3432 4.54368Z" fill="#3666FF"/>
</svg>
