<svg width="32" height="32" viewBox="0 0 32 32" fill="none" xmlns="http://www.w3.org/2000/svg">
<path fill-rule="evenodd" clip-rule="evenodd" d="M15.996 0H16.004C24.826 0 32 7.178 32 16C32 24.822 24.826 32 16.004 32C12.75 32 9.732 31.032 7.202 29.356L1.052 31.322L3.046 25.378C1.128 22.744 0 19.5 0 16C0 7.176 7.174 0 15.996 0ZM22.174 24.852C23.396 24.588 24.928 23.684 25.314 22.594C25.7 21.502 25.7 20.572 25.588 20.374C25.4976 20.2169 25.2837 20.1139 24.9645 19.9602C24.8814 19.9202 24.7911 19.8768 24.694 19.828C24.224 19.594 21.938 18.464 21.506 18.314C21.082 18.154 20.678 18.21 20.358 18.662C20.2971 18.7472 20.2364 18.8326 20.1761 18.9175C19.79 19.4605 19.4176 19.9842 19.108 20.318C18.826 20.618 18.366 20.656 17.98 20.496C17.9379 20.4785 17.8897 20.459 17.8357 20.4372C17.2245 20.1903 15.8689 19.6428 14.228 18.182C12.844 16.95 11.904 15.416 11.632 14.956C11.3649 14.4945 11.5953 14.224 11.8082 13.9739C11.8121 13.9692 11.8161 13.9646 11.82 13.96C11.9573 13.7902 12.0905 13.6488 12.2243 13.5066C12.3206 13.4044 12.4173 13.3018 12.516 13.188C12.5307 13.1711 12.5449 13.1547 12.5588 13.1387C12.7685 12.8977 12.8933 12.7541 13.034 12.454C13.194 12.144 13.08 11.824 12.966 11.588C12.8876 11.4227 12.403 10.2471 11.9871 9.23785C11.8091 8.80603 11.6437 8.40468 11.528 8.126C11.218 7.384 10.982 7.356 10.512 7.336C10.4976 7.33528 10.4831 7.33454 10.4684 7.3338C10.3198 7.32628 10.1562 7.318 9.976 7.318C9.364 7.318 8.726 7.498 8.34 7.892C8.32651 7.90577 8.31245 7.92007 8.29786 7.93491C7.80404 8.43714 6.704 9.55589 6.704 11.786C6.704 14.0204 8.28941 16.1829 8.58275 16.583C8.59084 16.594 8.59794 16.6037 8.604 16.612C8.62165 16.6352 8.65492 16.6834 8.70334 16.7535C9.3023 17.6209 12.2197 21.8457 16.57 23.648C20.246 25.172 21.338 25.03 22.174 24.852Z" fill="#B0B0B0"/>
</svg>
